<?xml version="1.0" standalone="no"?>
<!DOCTYPE svg PUBLIC "-//W3C//DTD SVG 20010904//EN"
 "http://www.w3.org/TR/2001/REC-SVG-20010904/DTD/svg10.dtd">
<svg version="1.0" xmlns="http://www.w3.org/2000/svg"
 width="1244.000000pt" height="1280.000000pt" viewBox="0 0 1244.000000 1280.000000"
 preserveAspectRatio="xMidYMid meet">
<g transform="translate(0.000000,1280.000000) scale(0.100000,-0.100000)"
fill="#000000" stroke="none">
<path d="M6045 12790 c-27 -4 -102 -13 -165 -20 -506 -53 -1016 -265 -1420
-590 -488 -394 -825 -955 -935 -1558 -43 -240 -53 -572 -22 -795 59 -421 207
-804 445 -1146 94 -136 189 -246 363 -421 287 -288 439 -474 641 -785 123
-188 198 -323 314 -560 91 -186 234 -525 234 -554 0 -20 -20 -11 -121 52 -229
143 -477 338 -699 552 -241 232 -428 366 -705 506 -601 302 -1277 375 -1940
209 -1021 -256 -1813 -1094 -1985 -2100 -44 -253 -57 -455 -41 -594 52 -425
107 -645 226 -904 139 -304 307 -546 544 -782 150 -150 250 -231 431 -351 466
-309 1018 -463 1599 -446 441 13 827 113 1210 313 292 152 537 344 777 608
167 183 451 397 796 599 171 100 241 137 263 137 20 0 20 -25 -10 -280 -97
-847 -283 -1579 -559 -2198 -322 -722 -777 -1236 -1319 -1492 -176 -83 -450
-163 -627 -183 -19 -2 1279 -4 2885 -4 2532 -1 2908 1 2830 13 -685 106 -1246
523 -1673 1244 -297 501 -532 1168 -676 1920 -79 408 -146 940 -120 940 4 0
46 -21 93 -47 329 -179 676 -429 935 -673 86 -81 101 -90 108 -68 3 7 49 -28
109 -81 224 -202 396 -320 644 -444 388 -193 795 -287 1244 -287 541 0 1057
152 1506 444 645 419 1079 1093 1178 1831 44 325 45 366 13 630 -42 336 -115
587 -255 870 -405 815 -1209 1368 -2146 1476 -155 18 -491 15 -645 -5 -601
-80 -1118 -321 -1552 -725 -49 -44 -94 -81 -101 -81 -8 0 -22 -10 -33 -22 -42
-47 -273 -243 -397 -336 -126 -95 -328 -232 -341 -232 -30 0 104 341 249 635
253 514 503 862 913 1274 164 165 276 297 370 439 487 728 575 1632 236 2441
-365 870 -1225 1504 -2184 1610 -58 7 -138 16 -178 22 -84 10 -234 10 -307 -1z"/>
</g>
</svg>
